<mxfile host="app.diagrams.net" modified="2021-12-02T03:14:18.754Z" agent="5.0 (Macintosh; Intel Mac OS X 10_15_7) AppleWebKit/537.36 (KHTML, like Gecko) Chrome/96.0.4664.55 Safari/537.36" etag="IuHokfWRdlYukiakytZZ" version="15.5.0" type="github">
  <diagram id="RLLwH_KNl7H4uIzVYNMF" name="Page-1">
    <mxGraphModel dx="788" dy="512" grid="1" gridSize="10" guides="1" tooltips="1" connect="1" arrows="1" fold="1" page="1" pageScale="1" pageWidth="827" pageHeight="1169" math="0" shadow="0">
      <root>
        <mxCell id="0" />
        <mxCell id="1" parent="0" />
        <mxCell id="Go2RED_EbZ0aivkY_b7x-6" style="edgeStyle=orthogonalEdgeStyle;rounded=0;orthogonalLoop=1;jettySize=auto;html=1;entryX=0.5;entryY=0;entryDx=0;entryDy=0;" edge="1" parent="1" source="Go2RED_EbZ0aivkY_b7x-1" target="Go2RED_EbZ0aivkY_b7x-2">
          <mxGeometry relative="1" as="geometry" />
        </mxCell>
        <mxCell id="Go2RED_EbZ0aivkY_b7x-1" value="CA加密" style="rounded=0;whiteSpace=wrap;html=1;" vertex="1" parent="1">
          <mxGeometry x="272" y="20" width="144" height="70" as="geometry" />
        </mxCell>
        <mxCell id="Go2RED_EbZ0aivkY_b7x-24" style="edgeStyle=orthogonalEdgeStyle;rounded=0;orthogonalLoop=1;jettySize=auto;html=1;" edge="1" parent="1" source="Go2RED_EbZ0aivkY_b7x-2" target="Go2RED_EbZ0aivkY_b7x-3">
          <mxGeometry relative="1" as="geometry" />
        </mxCell>
        <mxCell id="Go2RED_EbZ0aivkY_b7x-2" value="CA预解密" style="rounded=0;whiteSpace=wrap;html=1;" vertex="1" parent="1">
          <mxGeometry x="278" y="140" width="134" height="50" as="geometry" />
        </mxCell>
        <mxCell id="Go2RED_EbZ0aivkY_b7x-21" style="edgeStyle=orthogonalEdgeStyle;rounded=0;orthogonalLoop=1;jettySize=auto;html=1;entryX=0.5;entryY=0;entryDx=0;entryDy=0;" edge="1" parent="1" source="Go2RED_EbZ0aivkY_b7x-3" target="Go2RED_EbZ0aivkY_b7x-9">
          <mxGeometry relative="1" as="geometry" />
        </mxCell>
        <mxCell id="Go2RED_EbZ0aivkY_b7x-3" value="打包生成.jmbs&lt;br&gt;(.shmsg+log+项目信息)" style="rounded=0;whiteSpace=wrap;html=1;" vertex="1" parent="1">
          <mxGeometry x="274" y="230" width="140" height="70" as="geometry" />
        </mxCell>
        <mxCell id="Go2RED_EbZ0aivkY_b7x-23" value="" style="edgeStyle=orthogonalEdgeStyle;rounded=0;orthogonalLoop=1;jettySize=auto;html=1;" edge="1" parent="1" source="Go2RED_EbZ0aivkY_b7x-5" target="Go2RED_EbZ0aivkY_b7x-15">
          <mxGeometry relative="1" as="geometry" />
        </mxCell>
        <mxCell id="Go2RED_EbZ0aivkY_b7x-5" value="jmbs上传" style="rounded=0;whiteSpace=wrap;html=1;" vertex="1" parent="1">
          <mxGeometry x="276" y="500" width="136" height="60" as="geometry" />
        </mxCell>
        <mxCell id="Go2RED_EbZ0aivkY_b7x-22" style="edgeStyle=orthogonalEdgeStyle;rounded=0;orthogonalLoop=1;jettySize=auto;html=1;entryX=0.5;entryY=0;entryDx=0;entryDy=0;" edge="1" parent="1" source="Go2RED_EbZ0aivkY_b7x-9" target="Go2RED_EbZ0aivkY_b7x-5">
          <mxGeometry relative="1" as="geometry" />
        </mxCell>
        <mxCell id="Go2RED_EbZ0aivkY_b7x-9" value="log上传" style="rounded=0;whiteSpace=wrap;html=1;" vertex="1" parent="1">
          <mxGeometry x="280" y="360" width="130" height="70" as="geometry" />
        </mxCell>
        <mxCell id="Go2RED_EbZ0aivkY_b7x-10" value="&amp;nbsp;status=开始上传&amp;nbsp;" style="text;html=1;align=center;verticalAlign=middle;resizable=0;points=[];autosize=1;strokeColor=none;fillColor=none;" vertex="1" parent="1">
          <mxGeometry x="430" y="385" width="110" height="20" as="geometry" />
        </mxCell>
        <mxCell id="Go2RED_EbZ0aivkY_b7x-14" value="&lt;span style=&quot;font-family: &amp;#34;helvetica&amp;#34;&quot;&gt;status=status+&lt;/span&gt;正在上传中" style="text;html=1;align=center;verticalAlign=middle;resizable=0;points=[];autosize=1;strokeColor=none;fillColor=none;" vertex="1" parent="1">
          <mxGeometry x="420" y="520" width="150" height="20" as="geometry" />
        </mxCell>
        <mxCell id="Go2RED_EbZ0aivkY_b7x-15" value="上传回调" style="rounded=0;whiteSpace=wrap;html=1;" vertex="1" parent="1">
          <mxGeometry x="274" y="600" width="140" height="70" as="geometry" />
        </mxCell>
        <mxCell id="Go2RED_EbZ0aivkY_b7x-17" value="&lt;span style=&quot;color: rgb(0 , 0 , 0) ; font-family: &amp;#34;helvetica&amp;#34; ; font-size: 12px ; font-style: normal ; font-weight: 400 ; letter-spacing: normal ; text-align: center ; text-indent: 0px ; text-transform: none ; word-spacing: 0px ; background-color: rgb(248 , 249 , 250) ; display: inline ; float: none&quot;&gt;&amp;nbsp;status=status+上传成功/失败&lt;/span&gt;" style="text;whiteSpace=wrap;html=1;" vertex="1" parent="1">
          <mxGeometry x="440" y="620" width="130" height="30" as="geometry" />
        </mxCell>
      </root>
    </mxGraphModel>
  </diagram>
</mxfile>
